<?xml version="1.0" encoding="utf-8"?>
<!-- Generator: Adobe Illustrator 14.0.0, SVG Export Plug-In . SVG Version: 6.00 Build 43363)  -->
<!DOCTYPE svg PUBLIC "-//W3C//DTD SVG 1.1//EN" "http://www.w3.org/Graphics/SVG/1.1/DTD/svg11.dtd">
<svg version="1.1" id="Layer_1" xmlns="http://www.w3.org/2000/svg" xmlns:xlink="http://www.w3.org/1999/xlink" x="0px" y="0px"
	 width="100px" height="100px" viewBox="0 0 100 100" enable-background="new 0 0 100 100" xml:space="preserve">
<g id="XMLID_1_">
	<g>
		<path d="M58.7,45.2c-2.7,2.85-5.33,5.62-7.78,8.2c-2.37-2.5-4.96-5.24-7.66-8.081c2.44-2.27,5.08-4.72,7.79-7.24
			C53.75,40.6,56.34,43,58.7,45.2z"/>
		<path d="M97.62,82.97c3.229,3.48,1.939,8.101,0,10.05c-1.95,1.94-7.86,1.94-9.811,0c-1.939-1.949-1.939-4.3-1.939-6
			c0-1.699,0.57-1.46-2.021-4.05c-2.6-2.59-9.319-9.319-10.58-10.569c-1.25-1.261-4.1-1.931-6.029,0
			c-1.92,1.92-7.88,7.869-8.2,8.199c-0.32,0.32-2.86-2.85-2.41-3.3s7.17-7.17,8.021-8.02c0.85-0.851-0.37-1.91-2.03-3.57
			c-0.5-0.5-5.271-5.53-11.7-12.31c2.45-2.58,5.08-5.351,7.78-8.2c6.66,6.18,11.46,10.64,11.7,10.88c0.81,0.8,4.05,3.479,5.67,1.86
			c1.62-1.62,7.37-7.131,7.779-7.621c0.4-0.48,1.94,2.49,1.94,3.49c0,0.99-6.4,6.561-6.97,7.131C78.26,61.5,76.68,66,78.18,67.5
			s10.44,10.37,11.74,11.42s1.3,1.05,2.51,2.43C94.62,81.35,95.28,80.99,97.62,82.97z"/>
		<path d="M84.04,7.47l5.83-1.94c0,0-0.2,7.09-1.62,8.5C87.46,14.82,72.28,30.86,58.7,45.2c-2.36-2.2-4.95-4.6-7.65-7.12
			C66.29,23.94,84.04,7.47,84.04,7.47z"/>
		<path d="M15.96,5.53c0,0,19.44,18.03,35.09,32.55c-2.71,2.52-5.35,4.97-7.79,7.24C29.23,30.5,12.58,12.92,11.75,12.09
			c-1.42-1.42-1.62-8.51-1.62-8.51L15.96,5.53z"/>
		<path d="M43.26,45.32c2.7,2.84,5.29,5.581,7.66,8.081c-7.34,7.76-12.99,13.71-13.54,14.26c-1.66,1.66-2.88,2.71-2.03,3.56
			c0.85,0.851,7.57,7.58,8.02,8.021c0.45,0.45-2.08,3.63-2.41,3.3c-0.32-0.32-6.27-6.271-8.2-8.2c-1.93-1.92-4.78-1.25-6.03,0
			c-1.26,1.26-7.98,7.98-10.58,10.57c-2.59,2.59-2.02,2.35-2.02,4.05c0,1.71,0,4.06-1.95,6c-1.94,1.94-7.85,1.94-9.8,0
			c-1.94-1.94-3.24-6.57,0-10.05c2.34-1.97,3-1.62,5.19-1.62c1.21-1.37,1.21-1.37,2.51-2.43c1.3-1.051,10.25-9.92,11.75-11.42
			s-0.08-6-0.65-6.561c-0.57-0.57-6.97-6.13-6.97-7.13s1.54-3.97,1.95-3.48c0.4,0.48,6.15,5.99,7.77,7.61
			c1.62,1.62,4.86-1.05,5.67-1.86C29.86,57.76,35.6,52.43,43.26,45.32z"/>
	</g>
	<g>
	</g>
</g>
</svg>
