<?xml version="1.0" encoding="utf-8"?>
<!-- Generator: Adobe Illustrator 14.0.0, SVG Export Plug-In . SVG Version: 6.00 Build 43363)  -->
<!DOCTYPE svg PUBLIC "-//W3C//DTD SVG 1.1//EN" "http://www.w3.org/Graphics/SVG/1.1/DTD/svg11.dtd">
<svg version="1.1" xmlns="http://www.w3.org/2000/svg" xmlns:xlink="http://www.w3.org/1999/xlink" x="0px" y="0px" width="100px"
	 height="100px" viewBox="0 0 100 100" enable-background="new 0 0 100 100" xml:space="preserve">
<g id="Layer_3">
	<g>
		<path d="M50,98C23.533,98,2,76.468,2,50C2,23.533,23.533,2,50,2c26.468,0,48,21.533,48,48C98,76.468,76.468,98,50,98L50,98z M50,8
			C26.841,8,8,26.841,8,50c0,23.159,18.841,42,42,42c23.159,0,42-18.841,42-42C92,26.841,73.159,8,50,8L50,8z"/>
	</g>
</g>
<g id="Layer_1">
	<path d="M87.707,49.172C86.808,69.129,77.25,87.033,50.152,87.033c-25.402,0-36.107-17.373-37.517-36.835
		C12.596,49.69,26.75,68.791,51.283,68.791C75,68.791,87.707,49.172,87.707,49.172z"/>
	<path d="M22.683,49.074c4.884,0,8.704-14.062,8.704-14.062c0,6.233-3.953,21.211,9.236,21.211
		c10.414-6.062,10.66-21.286,10.66-21.286c-0.001,0,0.361,15.926,12.431,21.286c12.028,0,7.031-21.211,7.031-21.211
		s2.165,10.643,8.588,10.643s6.053-8.65,6.053-8.65c-5.351-14.251-19.123-24.401-35.233-24.402c-15.99,0-29.65,9.975-35.096,24.038
		C15.057,36.64,17.458,49.074,22.683,49.074z"/>
	<radialGradient id="SVGID_1_" cx="33.8003" cy="53.1016" r="0" gradientUnits="userSpaceOnUse">
		<stop  offset="0.7388" style="stop-color:#000000;stop-opacity:0"/>
		<stop  offset="0.8873" style="stop-color:#000000;stop-opacity:0.6512"/>
		<stop  offset="1" style="stop-color:#000000;stop-opacity:0.95"/>
	</radialGradient>
	<path opacity="0.4" fill="url(#SVGID_1_)" d="M33.8,53.102"/>
	<path d="M43.095,2.156"/>
</g>
</svg>
